<?xml version="1.0" standalone="no"?>
<!DOCTYPE svg PUBLIC "-//W3C//DTD SVG 20010904//EN"
 "http://www.w3.org/TR/2001/REC-SVG-20010904/DTD/svg10.dtd">
<svg version="1.0" xmlns="http://www.w3.org/2000/svg"
 width="74.000000pt" height="74.000000pt" viewBox="0 0 74.000000 74.000000"
 preserveAspectRatio="xMidYMid meet">
<metadata>
Created by potrace 1.11, written by Peter Selinger 2001-2013
</metadata>
<g transform="translate(0.000000,74.000000) scale(0.100000,-0.100000)"
fill="#000000" stroke="none">
<path d="M303 728 c-28 -13 -36 -33 -19 -47 24 -20 102 -29 140 -16 34 12 36
12 36 -10 0 -16 -9 -26 -30 -35 -67 -28 -160 -4 -160 41 0 20 -2 20 -22 7 -13
-8 -42 -17 -66 -21 -46 -6 -72 -21 -72 -43 0 -31 86 -49 144 -29 26 9 36 9 39
1 13 -35 -57 -71 -118 -60 -34 6 -76 30 -72 42 1 4 0 9 -3 10 -7 5 -60 -20
-60 -27 0 -3 75 -49 167 -102 l166 -96 146 85 c80 46 157 91 170 100 l24 15
-34 18 c-44 23 -49 23 -49 -1 0 -38 -99 -56 -156 -29 -36 18 -45 65 -10 54 71
-23 149 -16 166 15 9 16 6 22 -19 35 -17 8 -44 15 -61 15 -42 0 -90 26 -90 49
0 35 -105 54 -157 29z m72 -253 c33 0 68 4 78 9 14 7 17 4 14 -13 -7 -47 -91
-69 -157 -41 -22 9 -30 19 -30 37 0 20 3 24 18 17 9 -5 44 -9 77 -9z"/>
<path d="M553 382 l-153 -97 0 -143 0 -142 63 34 c34 19 105 59 157 88 l95 54
3 152 c1 84 -1 152 -5 151 -5 0 -77 -44 -160 -97z"/>
<path d="M20 326 l0 -144 154 -86 c84 -47 156 -86 160 -86 3 0 6 63 6 139 l0
140 -126 75 c-70 42 -130 76 -134 76 -4 0 -13 7 -20 15 -7 8 -19 15 -26 15
-11 0 -14 -28 -14 -144z"/>
</g>
</svg>
